<?xml version="1.0" encoding="UTF-8" standalone="no"?>
<svg
   fill="#000000"
   height="200px"
   width="200px"
   version="1.1"
   id="Capa_1"
   viewBox="0 0 199.764 199.764"
   xml:space="preserve"
   sodipodi:docname="child.svg"
   inkscape:version="1.3.2 (091e20ef0f, 2023-11-25, custom)"
   xmlns:inkscape="http://www.inkscape.org/namespaces/inkscape"
   xmlns:sodipodi="http://sodipodi.sourceforge.net/DTD/sodipodi-0.dtd"
   xmlns="http://www.w3.org/2000/svg"
   xmlns:svg="http://www.w3.org/2000/svg"><defs
     id="defs1" /><sodipodi:namedview
     id="namedview1"
     pagecolor="#505050"
     bordercolor="#eeeeee"
     borderopacity="1"
     inkscape:showpageshadow="0"
     inkscape:pageopacity="0"
     inkscape:pagecheckerboard="0"
     inkscape:deskcolor="#505050"
     inkscape:zoom="2.8531759"
     inkscape:cx="109.35183"
     inkscape:cy="112.33097"
     inkscape:window-width="1920"
     inkscape:window-height="1010"
     inkscape:window-x="0"
     inkscape:window-y="0"
     inkscape:window-maximized="1"
     inkscape:current-layer="Capa_1" /><g
     id="SVGRepo_bgCarrier"
     stroke-width="0" /><g
     id="SVGRepo_tracerCarrier"
     stroke-linecap="round"
     stroke-linejoin="round" /><g
     id="SVGRepo_iconCarrier"> <path
   d="M124.589,199.764H103.09c-1.104,0-2-0.896-2-2v-4.377c0-1.844,0.596-3.551,1.605-4.938l-0.89-7.115h-3.519l-0.957,7.647 c-0.01,0.083-0.025,0.164-0.046,0.244c0.702,1.228,1.104,2.649,1.104,4.162v4.377c0,1.104-0.896,2-2,2H74.889c-1.104,0-2-0.896-2-2 v-4.377c0-1.93,0.653-3.71,1.749-5.131c-0.097-0.92-0.442-3.166-1.678-6.696c-1.204-3.44-4.604-6.384-6.239-7.544 c-5.954-0.394-11.27-3.165-15.002-7.371l0.211,2.09c1.239,0.732,3.575,2.069,5.104,2.663c3.528,1.373,5.511,4.363,5.583,8.422 c0.062,3.44-2.713,5.427-5.054,6.324c-0.486,2.373-2.191,5.472-6.47,6.193c-4.442,0.758-6.917-2.098-7.982-4.542H41.49 c-2.831,0-6.411-1.226-7.391-7.065c-0.673-4.017,1.147-8.978,1.852-10.693l-1.32-6.817c-0.113-0.586,0.041-1.192,0.421-1.652 c0.36-0.437,0.888-0.699,1.45-0.726c-0.543-4.841-1.495-16.562,0.292-28.246c1.735-11.345,5.172-18.192,6.878-21.032l-2.05-1.928 c-0.485-0.457-0.712-1.125-0.604-1.782l1.555-9.443c0.12-0.727,0.629-1.329,1.326-1.567c0.699-0.237,1.469-0.073,2.009,0.427 l0.263,0.245v-48.87c0-9.44,3.015-18.189,8.134-25.335c-0.43-0.43-0.657-1.048-0.563-1.695c0.078-0.539,2.106-13.266,18.88-19.349 c16.874-6.121,24.946,2.063,25.28,2.414c0.106,0.11,0.197,0.231,0.273,0.359h4.767c0.076-0.128,0.167-0.248,0.273-0.359 c0.334-0.351,8.409-8.532,25.28-2.414c16.773,6.083,18.802,18.81,18.88,19.349c0.137,0.943-0.408,1.827-1.263,2.154 c4.922,7.061,7.81,15.637,7.81,24.876v48.567c0.535-0.456,1.272-0.598,1.943-0.369c0.696,0.238,1.206,0.841,1.326,1.567l1.556,9.443 c0.108,0.657-0.118,1.325-0.604,1.782l-1.789,1.683c1.587,2.864,4.872,9.867,6.616,21.277c1.788,11.684,0.835,23.404,0.292,28.246 c0.563,0.026,1.091,0.288,1.451,0.726c0.38,0.46,0.534,1.066,0.421,1.652l-1.32,6.817c0.704,1.716,2.523,6.677,1.851,10.693 c-0.978,5.84-4.559,7.065-7.391,7.065h-1.621c-1.065,2.444-3.541,5.298-7.981,4.542c-4.278-0.722-5.983-3.82-6.47-6.193 c-2.341-0.896-5.116-2.884-5.055-6.325c0.073-4.058,2.056-7.048,5.583-8.421c1.435-0.558,3.716-1.842,5.104-2.662l0.171-1.686 c-3.708,3.977-8.866,6.582-14.624,6.966c-1.213,0.873-4.935,3.79-6.249,7.545c-1.659,4.74-1.716,7.164-1.716,7.188 c-0.002,0.105-0.012,0.208-0.028,0.309c0.762,1.266,1.201,2.748,1.201,4.33v4.377C126.589,198.869,125.693,199.764,124.589,199.764z M105.09,195.764h17.499v-2.377c0-1.081-0.391-2.073-1.038-2.842c-0.182-0.085-0.352-0.196-0.502-0.334 c-0.872-0.794-1.995-1.231-3.162-1.231h-8.095c-1.167,0-2.29,0.438-3.162,1.231c-0.15,0.138-0.32,0.249-0.502,0.334 c-0.647,0.769-1.038,1.761-1.038,2.842V195.764z M76.889,195.764h17.498v-2.377c0-1.081-0.391-2.073-1.038-2.842 c-0.182-0.084-0.352-0.197-0.503-0.334c-0.871-0.794-1.993-1.231-3.161-1.231h-8.094c-1.168,0-2.29,0.438-3.161,1.231 c-0.151,0.137-0.321,0.25-0.503,0.334c-0.647,0.769-1.038,1.761-1.038,2.842V195.764z M146.14,185.465 c0.22,1.007,0.93,2.547,3.197,2.93c3.051,0.509,3.847-2.662,3.926-3.026c0.201-0.918,1.015-1.572,1.954-1.572h3.057 c1.365,0,2.87-0.288,3.445-3.727c0.504-3.005-1.132-7.501-1.805-8.979c-0.172-0.378-0.224-0.803-0.145-1.21l0.976-5.04h-8.497 l-0.536,5.295c-0.063,0.62-0.41,1.175-0.94,1.501c-0.166,0.103-4.1,2.522-6.592,3.491c-1.97,0.767-2.99,2.369-3.033,4.765 c-0.023,1.293,1.453,2.094,2.449,2.486l2.613-2.219c0.843-0.715,2.104-0.612,2.818,0.23c0.715,0.842,0.612,2.104-0.23,2.818 L146.14,185.465z M39.019,164.84l0.976,5.04c0.079,0.407,0.027,0.832-0.145,1.21c-0.673,1.479-2.309,5.976-1.806,8.979 c0.576,3.438,2.081,3.727,3.445,3.727h3.057c0.939,0,1.753,0.654,1.954,1.572c0.136,0.581,0.982,3.525,3.927,3.026 c2.268-0.383,2.975-1.948,3.195-2.932l-2.655-2.255c-0.843-0.715-0.945-1.977-0.23-2.818c0.716-0.845,1.978-0.944,2.818-0.23 l2.613,2.218c0.995-0.393,2.472-1.193,2.448-2.485c-0.042-2.396-1.063-3.998-3.033-4.765c-2.491-0.969-6.426-3.389-6.592-3.491 c-0.53-0.326-0.877-0.882-0.94-1.501l-0.535-5.295H39.019z M81.306,184.971h8.666c1.335,0,2.598,0.313,3.721,0.868l0.845-6.754 c0.125-1.001,0.976-1.752,1.984-1.752h7.05c1.009,0,1.859,0.751,1.984,1.752l0.812,6.493c0.971-0.392,2.03-0.607,3.14-0.607h8.665 c1.295,0,2.523,0.294,3.621,0.819c0.273-1.371,0.747-3.219,1.563-5.552c0.854-2.441,2.405-4.545,3.934-6.174H72.803 c1.528,1.629,3.079,3.732,3.934,6.174c0.769,2.197,1.232,3.964,1.513,5.307C79.197,185.175,80.227,184.971,81.306,184.971z M55.098,164.415c3.287,3.478,7.94,5.65,13.092,5.65h63.713c5.096,0,9.703-2.125,12.984-5.536c-2.129-1.081-4.988-3.345-6.973-8.05 c-0.706-1.676-1.147-4.077-1.402-6.824c-0.005-0.034-0.008-0.067-0.01-0.101c-0.589-6.462-0.166-14.795,0.228-20.076l-3.668,3.155 c-0.118,0.103-0.247,0.19-0.384,0.261v0.001c-0.002,0-0.003,0.001-0.005,0.002c-0.001,0-0.001,0.003-0.005,0.002 c0,0.003-0.001,0.001-0.005,0.003c0,0,0.003,0-0.005,0.003h-0.001c-0.001,0.001-0.003,0.002-0.004,0.002l-0.001,0.001 c-0.002,0-0.003,0.001-0.004,0.002c0-0.001-0.002,0.002-0.005,0.002c0,0-0.003,0.001-0.005,0.003c-0.002,0-0.001,0.002-0.005,0.002 c-0.001,0.002-0.002,0.001-0.005,0.003c-0.002-0.001-0.004,0.001-0.005,0.002s-0.002,0.001-0.004,0.002c0,0-0.003,0.001-0.005,0.003 c-0.001,0-0.001,0-0.001,0c-0.002,0.001-0.004,0.002-0.005,0.002c0,0,0,0-0.001,0.001c-0.128,0.061-0.262,0.107-0.399,0.14l0,0 c-0.019,0.004-0.038,0.009-0.057,0.012c0,0.001,0,0.001,0,0.001c-0.003,0.001-0.006,0-0.006,0.001c-0.002,0-0.003,0-0.005,0.001 c0,0-0.002,0.001-0.006,0.001h-0.001c-0.004,0-0.006,0.001-0.006,0.001c-0.002,0.002-0.004,0.001-0.006,0.001 c-0.002,0.002-0.004,0-0.006,0.002c-0.002,0-0.004-0.001-0.006,0.001c-0.002,0-0.003-0.001-0.005,0.001c-0.001,0-0.002,0-0.004,0 c0-0.001-0.002,0.001-0.005,0.001c-0.002,0-0.004,0.001-0.006,0.001s-0.001,0.001-0.005,0.001c-0.002,0-0.004,0.001-0.006,0.001 c-0.001,0-0.003,0.001-0.006,0.001c-0.002,0-0.003,0.001-0.005,0.001s-0.004,0.001-0.006,0.001s-0.004,0.001-0.006,0.001 s-0.003-0.001-0.005,0.001c-0.001,0-0.002,0-0.004,0h-0.001c-0.002,0.001-0.003,0.001-0.004,0.001h-0.001 c-0.009,0.001-0.018,0.003-0.026,0.004l0,0c-0.002,0-0.003,0-0.005,0.001h-0.001c-0.002,0-0.003,0-0.005,0 c-0.001,0-0.003,0.001-0.005,0.001s-0.002-0.001-0.006,0.001h-0.001c-0.004,0-0.004-0.001-0.006,0.001c-0.002,0-0.004,0-0.006,0 c-0.001,0-0.002,0.001-0.004,0.001h-0.001c-0.004,0-0.004-0.001-0.006,0.001c-0.002,0-0.004,0-0.006,0c0,0-0.002,0-0.004,0.001 h-0.001c-0.002,0-0.003,0-0.005,0c0,0-0.003,0.001-0.005,0.001s-0.004,0-0.006,0h-0.001c-0.002,0.001-0.003,0.001-0.005,0.001 h-0.001c-0.002,0-0.004-0.001-0.006,0.001c-0.002,0-0.004,0-0.006,0c-0.001,0-0.002,0-0.004,0c0-0.001-0.002,0.001-0.006,0.001l0,0 c-0.004,0-0.007,0.001-0.011,0.001l0,0c-0.012,0.002-0.028,0.003-0.033,0.002c-0.002,0-0.005,0.002-0.006,0.001 c-0.002,0-0.004,0-0.006,0c-0.001,0-0.002,0-0.004,0h-0.001c-0.004,0-0.006,0-0.006,0c-0.004,0.002-0.004,0.001-0.006,0.001 c-0.001,0-0.002,0-0.004,0c0,0-0.003,0-0.005,0s-0.004,0-0.006,0c-0.003,0-0.004,0.001-0.006,0.001s-0.004,0-0.006,0 c0,0-0.003,0-0.005,0s-0.004,0-0.006,0s-0.004,0-0.006,0c-0.001,0-0.002,0-0.002,0c-0.002,0-0.005,0.002-0.006,0.001 c-0.002,0-0.004,0-0.006,0s-0.004,0-0.006,0s-0.004,0-0.006,0s-0.004,0-0.006,0s-0.004,0-0.006,0c-0.004,0-0.005,0-0.006,0 s-0.002,0-0.002,0c-0.004,0-0.005,0-0.008,0c-0.001,0-0.002,0-0.004,0c0,0-0.003,0-0.005,0s-0.004,0-0.006,0s-0.003,0-0.005,0 c-0.001,0-0.002,0-0.004,0c0,0-0.003,0-0.005,0s-0.004,0-0.006,0s-0.003,0-0.005,0s-0.004-0.001-0.006-0.001s-0.004,0-0.006,0 c0,0-0.003,0-0.005,0s-0.004,0-0.006,0l0,0c-0.006,0-0.018,0-0.016-0.001c-0.004,0-0.004,0-0.006,0c-0.001,0-0.003,0-0.004,0h-0.001 c-0.004,0-0.006,0-0.006,0c-0.001,0-0.003,0-0.004-0.001c0,0-0.003,0-0.005,0c-0.001,0-0.002,0-0.002,0c-0.004,0-0.004,0-0.006,0 c-0.001,0-0.002,0-0.004,0c0,0-0.003-0.001-0.005-0.001s-0.002,0-0.006,0c0.001,0.001-0.013,0-0.021-0.002h-0.001 c-0.001,0-0.003,0-0.004,0h-0.001c-0.004,0-0.004,0-0.006,0c-0.001-0.001-0.003-0.001-0.004-0.001c0,0-0.003,0-0.005,0 c-0.001,0-0.002,0-0.002,0c-0.002-0.002-0.004-0.001-0.006-0.001c-0.001,0-0.002,0-0.004,0h-0.001c-0.004,0-0.005-0.001-0.005-0.001 c-0.002,0-0.003,0-0.005,0c0.003,0-0.02-0.002-0.031-0.004c0,0-0.003,0-0.005,0c-0.001,0-0.001,0-0.001,0 c-0.004,0-0.006-0.001-0.006-0.001c-0.001,0-0.003-0.001-0.006-0.001c-0.002,0-0.005,0-0.005,0c-0.004,0-0.004-0.001-0.006-0.001 c-0.001,0-0.002,0-0.004-0.001c0,0-0.003,0-0.005,0s-0.005-0.001-0.006-0.001h-0.001c-0.006-0.001-0.013-0.002-0.019-0.003 c0,0-0.003,0-0.005,0c-0.002-0.002-0.003-0.001-0.005-0.001s-0.004-0.001-0.006-0.001s-0.003-0.001-0.006-0.001 c-0.002,0-0.004-0.001-0.005-0.001s-0.003,0-0.006-0.001c-0.001,0-0.002,0-0.004,0l-0.001-0.001c-0.002,0-0.003,0-0.005,0 c0.002,0.001-0.007-0.001-0.013-0.003c-0.002,0-0.004,0.001-0.006-0.001c-0.001,0-0.002,0-0.004,0c0,0-0.004-0.001-0.006-0.001 c-0.002-0.002-0.003,0-0.007-0.002c-0.001,0-0.002,0-0.003,0c-0.597-0.11-1.112-0.486-1.399-1.022l-4.268-7.974 c-0.001-0.002-0.003-0.005-0.004-0.008c0-0.001-0.001-0.001-0.001-0.001c0-0.004-0.002-0.005-0.002-0.005 c-0.002-0.005-0.003-0.005-0.003-0.005c-0.002-0.004-0.001-0.005-0.003-0.005c0-0.003-0.002-0.005-0.002-0.005 c-0.001-0.002-0.002-0.003-0.002-0.005c-0.001,0-0.001,0-0.001,0c-0.001-0.002-0.001-0.003-0.002-0.005l0,0 c-0.001-0.002-0.002-0.003-0.003-0.005l0,0c-0.001-0.002-0.001-0.003-0.002-0.005l0,0c-0.001-0.002-0.002-0.003-0.003-0.005l0,0 c-0.194-0.391-0.25-0.821-0.18-1.229l0,0c0-0.002,0-0.003,0-0.005c0.001,0,0.001-0.001,0.001-0.001c0-0.001,0-0.003,0-0.004 c0,0,0.001-0.003,0.001-0.005s0.001-0.003,0.001-0.005s0.001-0.003,0.001-0.005c0-0.001,0.001-0.003,0.001-0.004v-0.001 c0.034-0.184,0.095-0.362,0.179-0.53v-0.001c0.001-0.001,0.002-0.003,0.003-0.004v-0.001c0.001-0.002,0.004-0.005,0.003-0.005 c0-0.002,0.002-0.004,0.002-0.006c0.002-0.001,0.003-0.002,0.003-0.005l0.001-0.001c0.001-0.002,0.001-0.003,0.002-0.004 c0,0,0,0,0-0.001c0.112-0.214,0.264-0.41,0.453-0.576c0-0.002,0.002-0.003,0.004-0.003c0-0.001,0-0.001,0-0.001l5.303-4.634 c-4.739,0.737-10.676,1.519-15.242,1.654c-8.677,0.26-15.555,0.263-15.623,0.263c-0.255,0-0.498-0.048-0.723-0.135 c-0.225,0.087-0.468,0.135-0.723,0.135c-0.068,0-6.946-0.003-15.624-0.263c-4.568-0.136-10.507-0.918-15.247-1.654l5.308,4.633 c0.012,0.011,0.023,0.021,0.034,0.031c0.001,0,0.003,0.002,0.003,0.002c0.191,0.176,0.343,0.384,0.451,0.608l0,0 c0.001,0.002,0.001,0.004,0.002,0.005c0.071,0.15,0.124,0.31,0.156,0.472l0,0c0,0.004,0.001,0.006,0.001,0.006 c0,0.002,0.001,0.004,0.001,0.006c0.002,0.002,0.001,0.004,0.001,0.006c0.002,0.002,0.001,0.003,0.001,0.005 c0.001,0.001,0.001,0.002,0.001,0.002c0,0.003,0.001,0.005,0.001,0.005c-0.001,0.005,0.001,0.005,0.001,0.005 c0,0.002,0,0.003,0,0.005h0.001c0.07,0.401,0.02,0.824-0.165,1.211l0,0c-0.001,0.002-0.001,0.003-0.002,0.005l0,0 c-0.001,0.002-0.002,0.003-0.002,0.005c-0.002,0-0.001,0.001-0.003,0.005v0.001c-0.001,0.001-0.002,0.002-0.002,0.004l-0.001,0.001 c0,0.001-0.001,0.003-0.002,0.004v0.001c-0.001,0.001-0.002,0.003-0.002,0.004l-0.001,0.001c0,0.001-0.001,0.003-0.002,0.004 c0,0,0,0.001-0.001,0.001c0,0.002-0.001,0.003-0.001,0.004c0,0-0.001,0.003-0.003,0.005c0,0-0.002,0.002-0.002,0.005 c-0.002,0-0.001,0.003-0.003,0.005c0,0-0.002,0.003-0.002,0.005c-0.001,0.002-0.003,0.002-0.003,0.005 c-0.001,0-0.001,0.003-0.003,0.005c0,0-0.003,0.003-0.002,0.005c-0.001,0.001-0.001,0.002-0.002,0.003c0,0-0.002,0.003-0.004,0.007 l-4.268,7.973c-0.002,0.002-0.003,0.004-0.004,0.006c0,0.002-0.002,0.003-0.003,0.007c-0.001,0-0.001,0.001-0.002,0.002 c-0.001,0.003-0.002,0.004-0.004,0.007c0,0.002-0.002,0.005-0.003,0.007c-0.002,0.002-0.002,0.004-0.004,0.006 c0,0.001-0.001,0.002-0.004,0.007c0.001,0.002-0.003,0.005-0.003,0.006c-0.002,0.001-0.001,0.003-0.004,0.006 c0,0.001-0.003,0.002-0.003,0.007c-0.002,0.002-0.002,0.004-0.004,0.006s-0.002,0.004-0.004,0.006c0,0.001-0.001,0.004-0.004,0.007 c0,0.001-0.001,0.001-0.001,0.002c-0.002,0.004-0.003,0.005-0.004,0.007c-0.002,0.002-0.002,0.004-0.004,0.006 c-0.001,0.001-0.001,0.002-0.002,0.004c-0.002,0-0.001,0.003-0.004,0.006c0,0.001-0.001,0.001-0.001,0.002 c-0.001,0.003-0.004,0.006-0.004,0.006c-0.001,0.003-0.004,0.004-0.004,0.007c-0.001,0.001-0.002,0.002-0.003,0.004 c0,0-0.003,0.002-0.003,0.006c-0.002,0-0.002,0.004-0.004,0.006s-0.001,0.004-0.004,0.006c-0.002,0.002-0.001,0.003-0.004,0.006 c-0.003,0.002-0.002,0.004-0.004,0.006c-0.001,0.001-0.001,0.002-0.001,0.002c-0.002,0.004-0.004,0.006-0.004,0.006 c-0.002,0.004-0.004,0.006-0.004,0.006c-0.001,0.002-0.002,0.003-0.003,0.005c-0.001,0-0.001,0.001-0.001,0.001 c-0.001,0.002-0.002,0.003-0.003,0.005c-0.001,0-0.001,0.001-0.001,0.001c-0.001,0.002-0.002,0.003-0.003,0.005 c-0.001,0-0.001,0.001-0.001,0.001c-0.001,0.002-0.002,0.003-0.004,0.005v0.001c-0.002,0.002-0.003,0.003-0.004,0.005 c0,0.001-0.002,0.004-0.004,0.006c0,0-0.002,0.002-0.004,0.006c0,0-0.002,0.002-0.004,0.006h-0.001 c-0.002,0.004-0.004,0.006-0.004,0.006c-0.002,0.002-0.004,0.005-0.004,0.006c-0.001,0.002-0.003,0.004-0.004,0.005v0.001 c-0.001,0.002-0.003,0.003-0.004,0.005c0.001,0.001-0.002,0.003-0.004,0.006h-0.001c-0.001,0.002-0.002,0.004-0.004,0.006l0,0 c-0.001,0.002-0.003,0.004-0.004,0.006l0,0c-0.156,0.21-0.352,0.386-0.573,0.52l0,0c-0.002,0.001-0.004,0.002-0.006,0.004l0,0 c-0.002,0.001-0.004,0.002-0.006,0.003l0,0c-0.003,0.002-0.007,0.005-0.007,0.004c-0.002,0.001-0.004,0.002-0.006,0.003l0,0 c-0.002,0.002-0.004,0.003-0.006,0.004l0,0c-0.002,0.001-0.004,0.002-0.006,0.003v0.001c-0.002,0.001-0.004,0.002-0.006,0.003l0,0 c-0.003,0.001-0.004,0.003-0.007,0.004c-0.002,0.001-0.003,0.002-0.005,0.003h-0.001c-0.002,0.001-0.004,0.002-0.006,0.003v0.001 c-0.002,0.001-0.004,0.002-0.006,0.003l0,0c-0.002,0.001-0.004,0.002-0.006,0.003c0,0.001-0.002,0.003-0.006,0.004h-0.001 c-0.003,0.002-0.007,0.002-0.006,0.003c-0.002,0.001-0.004,0.002-0.006,0.003v0.001c-0.002,0.001-0.004,0.002-0.006,0.003 c0.001,0-0.003,0.002-0.006,0.003c-0.001,0-0.001,0-0.001,0c-0.002,0.001-0.004,0.002-0.006,0.003v0.001 c-0.002,0.001-0.004,0.002-0.006,0.003h-0.001c-0.003,0.002-0.005,0.003-0.006,0.003c-0.002,0.001-0.004,0.002-0.006,0.003l0,0 c-0.002,0.001-0.004,0.002-0.006,0.003l-0.001,0.001c-0.002,0.001-0.004,0.002-0.006,0.003l0,0 c-0.002,0.001-0.004,0.002-0.006,0.003l0,0c-0.003,0.002-0.007,0.003-0.007,0.003c-0.002,0.001-0.004,0.002-0.006,0.003l0,0 c-0.002,0.001-0.004,0.002-0.006,0.003l0,0c-0.002,0.001-0.005,0.002-0.007,0.003l0,0c-0.037,0.018-0.075,0.035-0.114,0.051 c0.001,0.001-0.004,0.001-0.007,0.002l0,0c-0.002,0.001-0.004,0.002-0.006,0.003c0.001,0-0.002,0.001-0.006,0.002 c-0.002,0-0.004,0.001-0.006,0.003c-0.001,0-0.002,0-0.002,0c-0.004,0.001-0.005,0.002-0.007,0.003c-0.003,0-0.004,0-0.007,0.003 c-0.002,0-0.005,0.002-0.007,0.002c-0.002,0.002-0.004,0-0.007,0.003c-0.002,0-0.004,0.002-0.006,0.002 c-0.004,0.003-0.006,0.002-0.007,0.003c-0.002,0-0.004,0.002-0.007,0.002c-0.002-0.001-0.004,0.002-0.007,0.002 c-0.002,0.001-0.004,0-0.007,0.003c-0.002,0-0.003,0.002-0.007,0.002c-0.002,0.002-0.004,0.001-0.006,0.003 c-0.002,0-0.005,0-0.007,0.002c-0.004-0.001-0.006,0.002-0.007,0.002c-0.003,0.003-0.005,0.002-0.007,0.002 c-0.002,0.003-0.005,0.001-0.007,0.003c-0.002-0.001-0.005,0.002-0.007,0.002s-0.003,0.002-0.007,0.002 c-0.001,0-0.002,0.001-0.002,0.001c-0.003,0-0.004,0.001-0.007,0.002c-0.002,0.001-0.004,0.001-0.007,0.002 c-0.002,0.002-0.004,0.003-0.007,0.002c-0.003,0.001-0.004,0.002-0.007,0.002c-0.003,0.001-0.004,0-0.007,0.003 c-0.004,0-0.004-0.002-0.007,0.002c-0.003-0.001-0.005-0.002-0.007,0.002c-0.002-0.001-0.005-0.001-0.007,0.002 c-0.004,0-0.007-0.002-0.006,0.002c-0.003,0-0.005,0.001-0.007,0.001l0,0c-0.003,0.001-0.005,0.002-0.007,0.002l0,0 c-0.003,0.001-0.005,0.002-0.007,0.002l0,0c-0.003,0.001-0.005,0.001-0.007,0.002l0,0c-0.003,0.001-0.005,0.001-0.007,0.002l0,0 c-0.047,0.012-0.094,0.022-0.142,0.031c-0.107,0.021-0.216,0.031-0.324,0.034l0,0c-0.002,0-0.003,0-0.005,0l0,0 c-0.002,0-0.004,0-0.005,0h-0.001c-0.002,0-0.003,0-0.005,0l0,0c-0.002,0-0.004,0-0.005,0h-0.001c-0.002,0-0.003,0-0.005,0l0,0 c-0.008,0.001-0.019,0-0.027,0l0,0c-0.002,0-0.004,0-0.006,0h-0.001c-0.002,0-0.006,0-0.006,0c-0.004,0-0.006,0-0.006,0 c-0.004,0-0.005,0-0.007,0s-0.005,0-0.005,0c-0.001,0-0.002-0.001-0.007-0.001c0,0-0.003,0-0.005,0s-0.004,0-0.006,0 s-0.004,0-0.006,0c-0.001,0-0.002,0-0.002,0c-0.004,0-0.004,0-0.006,0c-0.001,0,0.007-0.001-0.006-0.001c-0.002,0-0.004,0-0.006,0 s-0.005,0-0.005,0c-0.004,0-0.004,0-0.006,0c-0.001,0-0.003,0-0.004-0.001c0,0-0.002,0-0.006,0h-0.001c-0.004,0-0.004,0-0.006,0 s-0.005,0.001-0.005-0.001c-0.002,0-0.003,0-0.005,0c0.002,0-0.021-0.001-0.033-0.002l0,0c-0.004,0-0.007-0.001-0.011-0.001l0,0 c-0.003,0-0.006-0.001-0.006-0.001c-0.004,0-0.004,0-0.006,0c-0.002-0.001-0.005,0-0.006-0.001c-0.001,0-0.002,0-0.004,0h-0.001 c-0.002,0-0.003,0-0.005-0.001h-0.001c-0.002,0-0.004,0-0.006,0c-0.001,0-0.003-0.001-0.004-0.001c0,0-0.003,0-0.005,0 c-0.001,0-0.002,0-0.002,0c-0.004-0.002-0.004-0.001-0.006-0.001c-0.001,0.001-0.002-0.001-0.006-0.001c-0.001,0-0.002,0-0.004,0 h-0.001c-0.004,0-0.006-0.001-0.006-0.001c-0.002,0-0.004-0.001-0.006-0.001c-0.001,0-0.002,0-0.004,0c0,0-0.003-0.001-0.005-0.001 c-0.001,0-0.002,0-0.002,0c-0.003,0-0.005-0.001-0.006-0.001s-0.003,0-0.004,0c0,0-0.003-0.001-0.005-0.001 c-0.003,0.001-0.004-0.001-0.006-0.001c-0.004,0-0.009,0-0.015-0.002c-0.002,0-0.004,0.001-0.004-0.001c-0.002,0-0.004,0-0.006,0 c-0.001-0.001-0.002-0.001-0.004-0.001c0,0-0.003-0.001-0.005-0.001c-0.001,0-0.002,0-0.002,0c-0.002,0-0.003-0.002-0.006-0.001 c-0.002,0-0.004-0.001-0.006-0.001c-0.001,0-0.002,0-0.004-0.001c0,0-0.003,0-0.005,0c-0.002-0.002-0.004-0.001-0.006-0.001 c-0.002-0.002-0.004-0.001-0.006-0.001c0-0.001-0.001-0.001-0.001-0.001c-0.002,0-0.006-0.001-0.006-0.001 c-0.002,0,0.005,0-0.006-0.001c-0.002,0-0.004-0.001-0.006-0.001c-0.001,0-0.003,0-0.004-0.001h-0.001c-0.002,0-0.003,0-0.005-0.001 h-0.001c-0.002,0-0.003,0-0.005-0.001c0,0-0.002-0.001-0.006-0.001l0,0c-0.226-0.043-0.442-0.125-0.642-0.243l0,0 c-0.002-0.001-0.003-0.002-0.005-0.003l0,0c-0.002-0.001-0.003-0.002-0.005-0.003c0-0.001-0.001-0.001-0.005-0.003 c0,0-0.001,0-0.004-0.003c-0.002,0-0.002,0-0.005-0.003c-0.002,0-0.001,0.001-0.005-0.003c-0.001,0-0.002-0.001-0.002-0.001 c-0.002-0.001-0.005-0.004-0.005-0.003c-0.001-0.001-0.002-0.003-0.005-0.003c-0.001-0.001-0.002-0.003-0.005-0.003 c-0.001-0.002-0.001-0.003-0.005-0.003c-0.002-0.001-0.001,0-0.005-0.004c-0.002,0-0.002,0-0.005-0.003h-0.001 c-0.001-0.001-0.003-0.002-0.004-0.003l0,0c-0.077-0.05-0.151-0.105-0.223-0.166l-3.67-3.158c0.395,5.291,0.817,13.643,0.224,20.108 c-0.001,0.012-0.002,0.024-0.003,0.036c-0.255,2.761-0.697,5.175-1.406,6.856C59.934,161.024,57.2,163.292,55.098,164.415z M140.672,150.962c0.214,1.621,0.516,2.985,0.928,3.963c1.773,4.205,4.278,5.751,5.649,6.305c0.077-0.057,0.158-0.108,0.243-0.153 c1.545-2.656,2.43-5.741,2.43-9.029v-3.289L140.672,150.962z M50.171,148.835v3.212c0,3.328,0.907,6.448,2.486,9.126 c1.387-0.596,3.79-2.175,5.508-6.248c0.412-0.978,0.714-2.342,0.928-3.963L50.171,148.835z M152.09,160.84h7.142 c0.495-4.319,1.541-16.165-0.214-27.639c-1.307-8.543-3.535-14.466-5.096-17.817v36.663 C153.922,155.171,153.267,158.145,152.09,160.84z M40.533,160.84h7.47c-1.178-2.694-1.832-5.669-1.832-8.793v-5.7 c-0.001-0.028-0.001-0.057,0-0.084v-30.943c-1.641,3.189-4.078,9.087-5.424,17.882C38.99,144.691,40.037,156.523,40.533,160.84z M50.171,144.723l9.265,2.208c0.35-7.162-0.277-16.479-0.733-21.229l-8.531-8.025V144.723z M141.063,125.703 c-0.456,4.749-1.083,14.066-0.733,21.229l9.592-2.286V117.37L141.063,125.703z M49.541,111.594l17.92,16.321l2.278-4.255 l-10.383-8.446c-0.04-0.032-0.077-0.065-0.114-0.1l-12.411-11.527c-0.015-0.014-0.028-0.026-0.042-0.04l-0.874-0.812l-0.776,4.717 L49.541,111.594z M130.026,123.66l2.277,4.254l18.243-16.624l4.08-3.838l-0.777-4.717l-0.553,0.514 c-0.009,0.009-0.019,0.018-0.028,0.026l-12.747,11.84c-0.024,0.023-0.049,0.045-0.074,0.067c-0.002,0-0.001,0-0.004,0.003 c-0.013,0.011-0.025,0.021-0.038,0.031L130.026,123.66z M62.529,111.981c3.889,0.702,14.303,2.481,21.126,2.685 c8.614,0.258,15.437,0.261,15.505,0.261c0.255,0,0.498,0.048,0.723,0.135c0.225-0.087,0.468-0.135,0.723-0.135 c0.068,0,6.891-0.003,15.504-0.261c6.816-0.203,17.217-1.979,21.114-2.682l12.698-11.096V48.644c0-14.311-7.63-26.873-19.034-33.833 c0.182,0.744-0.075,1.561-0.722,2.059c-0.874,0.675-2.131,0.513-2.805-0.361c-0.03-0.038-3.072-3.887-8.493-6.54 c-2.755-0.608-5.616-0.93-8.552-0.93H89.775c-2.313,0-4.584,0.2-6.79,0.582c-5.927,2.667-9.197,6.845-9.231,6.888 c-0.674,0.876-1.932,1.037-2.805,0.361c-0.875-0.675-1.036-1.931-0.361-2.805c0.011-0.015,0.039-0.051,0.084-0.107 c-12.213,6.754-20.501,19.77-20.501,34.687v52.548L62.529,111.981z M120.191,6.167c8.721,2.026,16.444,6.676,22.295,13.07 c-1.542-3.605-5.501-9.638-15.354-13.212c-5.462-1.979-9.791-2.269-13.063-1.861c1.544,0.296,3.182,0.754,4.846,1.44 C119.351,5.784,119.777,5.972,120.191,6.167z M84.432,3.997c-2.859,0-6.329,0.535-10.448,2.028 c-8.079,2.931-12.195,7.514-14.266,11.057c5.999-5.717,13.621-9.744,22.095-11.314c0.128-0.055,0.257-0.109,0.388-0.163 c1.675-0.691,3.323-1.15,4.876-1.446C86.262,4.055,85.381,3.997,84.432,3.997z M101.283,155.613h-5.26 c-7.812,0-14.166-6.354-14.166-14.166v-11.509c0-1.104,0.896-2,2-2h29.593c1.104,0,2,0.896,2,2v11.509 C115.45,149.259,109.095,155.613,101.283,155.613z M85.857,131.938v9.509c0,5.605,4.561,10.166,10.166,10.166h5.26 c5.606,0,10.167-4.561,10.167-10.166v-9.509H85.857z M100.468,102.259c-13.449,0-21.779-3.043-22.127-3.173 c-1.035-0.385-1.563-1.536-1.177-2.571s1.535-1.561,2.569-1.178l0,0c0.079,0.029,8.063,2.922,20.734,2.922 c12.424,0,17.813-2.779,17.866-2.808c0.97-0.519,2.182-0.152,2.703,0.815c0.521,0.969,0.169,2.173-0.795,2.7 C119.996,99.1,114.066,102.259,100.468,102.259z M121.897,82.275c-8.471,0-16.425-4.062-21.43-10.776 c-5.006,6.715-12.96,10.776-21.43,10.776c-14.729,0-26.712-11.983-26.712-26.712s11.982-26.711,26.712-26.711 c8.47,0,16.424,4.062,21.43,10.775c5.005-6.714,12.959-10.775,21.43-10.775c14.729,0,26.711,11.982,26.711,26.711 S136.626,82.275,121.897,82.275z M100.468,65.863L100.468,65.863c0.716,0,1.377,0.383,1.733,1.003 c4.047,7.037,11.595,11.409,19.696,11.409c12.522,0,22.711-10.188,22.711-22.712c0-12.522-10.188-22.711-22.711-22.711 c-8.102,0-15.648,4.371-19.696,11.408c-0.356,0.62-1.018,1.003-1.733,1.003s-1.377-0.383-1.733-1.003 c-4.049-7.037-11.596-11.408-19.696-11.408c-12.523,0-22.712,10.188-22.712,22.711c0,12.523,10.188,22.712,22.712,22.712 c8.101,0,15.648-4.372,19.696-11.409C99.091,66.246,99.752,65.863,100.468,65.863z M121.373,75.712 c-11.11,0-20.148-9.038-20.148-20.148c0-11.109,9.038-20.147,20.148-20.147c11.109,0,20.147,9.038,20.147,20.147 C141.52,66.674,132.482,75.712,121.373,75.712z M121.373,39.416c-8.904,0-16.148,7.244-16.148,16.147 c0,8.904,7.244,16.148,16.148,16.148c8.903,0,16.147-7.244,16.147-16.148C137.52,46.66,130.276,39.416,121.373,39.416z M79.038,75.712c-11.109,0-20.147-9.038-20.147-20.148c0-11.109,9.038-20.147,20.147-20.147s20.147,9.038,20.147,20.147 C99.185,66.674,90.147,75.712,79.038,75.712z M79.038,39.416c-8.903,0-16.147,7.244-16.147,16.147 c0,8.904,7.244,16.148,16.147,16.148s16.147-7.244,16.147-16.148C95.185,46.66,87.941,39.416,79.038,39.416z M116.954,64.614 c-4.99,0-9.05-4.061-9.05-9.051s4.06-9.05,9.05-9.05s9.051,4.06,9.051,9.05S121.944,64.614,116.954,64.614z M116.954,50.513 c-2.784,0-5.05,2.266-5.05,5.05c0,2.785,2.266,5.051,5.05,5.051c2.785,0,5.051-2.266,5.051-5.051 C122.005,52.779,119.739,50.513,116.954,50.513z M83.139,64.614c-4.99,0-9.051-4.061-9.051-9.051s4.061-9.05,9.051-9.05 s9.05,4.06,9.05,9.05S88.129,64.614,83.139,64.614z M83.139,50.513c-2.785,0-5.051,2.266-5.051,5.05 c0,2.785,2.266,5.051,5.051,5.051c2.784,0,5.05-2.266,5.05-5.051C88.188,52.779,85.923,50.513,83.139,50.513z"
   id="path1" /> </g><path
     style="opacity:0.53719;fill:#000080;stroke-width:0.350487"
     d="m 63.823572,169.44346 c -2.772764,-0.72612 -4.939943,-1.84089 -6.865459,-3.53151 l -1.194813,-1.04906 2.258352,-2.21433 c 2.578547,-2.52828 4.040572,-5.27301 4.977039,-9.34363 0.493562,-2.14541 0.592678,-4.37139 0.571376,-12.83214 l -0.02577,-10.23647 1.737233,1.56192 c 1.937242,1.74175 3.315698,2.01986 4.364039,0.88046 0.344853,-0.37481 1.632232,-2.63569 2.860844,-5.0242 2.50988,-4.87937 2.511143,-4.96034 0.109838,-7.0401 -0.697559,-0.60415 -1.746829,-1.54464 -2.331712,-2.08998 l -1.063425,-0.99152 1.752433,0.21553 c 6.976556,0.85803 12.566311,1.222 21.554928,1.4035 11.744095,0.23714 27.834775,-0.25812 33.296225,-1.02482 5.32871,-0.74807 5.2538,-0.79727 2.47035,1.62214 -1.3931,1.2109 -2.58515,2.55546 -2.71133,3.05823 -0.17212,0.68577 0.25552,1.80787 1.8145,4.76112 1.12184,2.12514 2.3415,4.29761 2.71036,4.82773 0.92855,1.33445 2.32762,1.2798 4.02798,-0.15733 0.72959,-0.61663 1.5631,-1.31519 1.85225,-1.55234 0.46526,-0.38159 0.52577,0.8056 0.52603,10.32143 2.5e-4,9.06593 0.0958,11.12422 0.60903,13.12154 1.08797,4.23384 3.18437,7.46691 6.32091,9.7481 l 1.32244,0.96181 -1.29316,1.06593 c -0.71124,0.58626 -2.2101,1.55466 -3.3308,2.15198 -3.9703,2.11615 -3.52042,2.09293 -40.254566,2.07842 -31.964369,-0.0126 -33.588256,-0.0438 -36.065118,-0.69241 z m 43.513888,-14.77227 c 2.82056,-1.32181 5.6443,-4.10326 7.0204,-6.91526 l 1.12749,-2.30398 0.11008,-8.06119 c 0.0915,-6.70045 0.0223,-8.17952 -0.40979,-8.76217 -0.5065,-0.68295 -0.92682,-0.70097 -16.350972,-0.70097 H 83.003565 l -0.70373,0.86897 c -0.665734,0.82205 -0.696082,1.26675 -0.562081,8.23643 0.124104,6.45494 0.235193,7.62187 0.896901,9.42139 1.463598,3.98025 4.186696,6.74222 8.374446,8.49396 1.941352,0.81207 2.356258,0.85071 8.178616,0.76158 5.829063,-0.0892 6.233593,-0.14079 8.149743,-1.03876 z"
     id="path2"
     transform="scale(0.99882)" /><path
     style="opacity:0.53719;fill:#808080;stroke-width:0.0309789"
     d="M 78.066915,78.327373 C 76.981098,78.275186 75.852269,78.137655 74.759913,77.92447 L 74.101611,77.795995 V 76.48628 75.176562 l 0.224597,0.05881 c 0.377375,0.09882 1.40798,0.301042 1.866481,0.366242 3.141315,0.446707 6.223026,0.185525 9.181729,-0.778173 6.424236,-2.092477 11.395095,-7.288364 13.212317,-13.810431 0.731674,-2.625998 0.913859,-5.467758 0.527299,-8.224907 -0.351038,-2.503787 -1.184305,-4.936337 -2.447779,-7.145784 -0.142896,-0.249884 -0.259811,-0.462477 -0.259811,-0.472429 0,-0.01 0.749786,-0.01809 1.666191,-0.01809 1.580268,0 1.675177,0.0032 1.84043,0.06124 0.420815,0.147904 0.860245,0.152675 1.294225,0.01405 0.23204,-0.07412 0.2404,-0.0745 1.63503,-0.0749 0.77099,-2.17e-4 1.40179,0.0068 1.40179,0.01561 0,0.0088 -0.10263,0.193513 -0.22806,0.410471 -2.34176,4.050388 -3.19167,8.860108 -2.38805,13.514048 0.56694,3.283215 1.98078,6.434502 4.06367,9.057405 0.8785,1.106265 1.99272,2.236632 3.07537,3.119941 4.53211,3.697646 10.35992,5.230898 16.17132,4.254545 0.51927,-0.08724 1.51347,-0.308941 1.97459,-0.440319 l 0.31753,-0.09047 V 76.3657 c 0,0.771902 -0.0121,1.379759 -0.0277,1.389378 -0.0488,0.03015 -1.24068,0.25968 -1.76911,0.340693 -3.54557,0.54356 -7.25417,0.210583 -10.68685,-0.959519 -1.38594,-0.472429 -2.90529,-1.165343 -4.13657,-1.88653 -3.3412,-1.957001 -6.14806,-4.737371 -8.10121,-8.024759 -0.37094,-0.624336 -0.60403,-0.874275 -0.99291,-1.064694 -0.34359,-0.168238 -0.56697,-0.221607 -0.92757,-0.221607 -0.36017,0 -0.58397,0.05337 -0.925943,0.220801 -0.385407,0.188701 -0.62994,0.446665 -0.97656,1.0302 -2.577467,4.339156 -6.523621,7.700722 -11.232565,9.568559 -2.971409,1.178631 -6.218396,1.721425 -9.386617,1.569151 z"
     id="path3"
     transform="scale(0.99882)" /><path
     style="opacity:0.53719;fill:#808080;stroke-width:0.0438108"
     d="m 137.99122,67.304386 c 0.0194,-0.03012 0.20472,-0.311057 0.41183,-0.624304 2.30978,-3.493402 3.44569,-7.619333 3.27544,-11.89727 -0.22001,-5.528153 -2.6706,-10.641701 -6.87257,-14.340665 -6.09128,-5.362122 -14.8798,-6.526226 -22.16828,-2.936352 -2.90545,1.431057 -5.34671,3.455374 -7.29919,6.052578 -0.35088,0.466743 -1.0687,1.531752 -1.06865,1.585525 1e-5,0.01379 -0.62485,0.01958 -1.38859,0.01289 l -1.38861,-0.01218 0.22189,-0.14943 c 0.28955,-0.19499 0.47966,-0.421801 0.78593,-0.937648 1.59115,-2.679902 3.83275,-5.108005 6.39936,-6.931802 3.17624,-2.256993 6.92617,-3.673712 10.83522,-4.093537 0.91829,-0.09862 2.90805,-0.133984 3.81648,-0.06782 4.46463,0.325157 8.55597,1.842381 12.06494,4.474138 2.84874,2.136575 5.16065,4.892106 6.72485,8.015234 1.25258,2.500937 1.98529,5.012117 2.30097,7.885949 0.0971,0.884343 0.13196,2.781088 0.0684,3.723921 -0.24188,3.585685 -1.26995,6.947834 -3.06414,10.020888 l -0.15938,0.272978 -1.76556,8.39e-4 c -1.40221,6.67e-4 -1.7583,-0.01043 -1.73029,-0.05392 z"
     id="path4"
     transform="scale(0.99882)" /><path
     style="opacity:0.53719;fill:#808080;stroke-width:0.0438108"
     d="m 127.23395,76.373228 0.0146,-1.369089 0.54764,-0.180345 c 3.87255,-1.275302 7.32948,-3.739395 9.78356,-6.973719 l 0.37545,-0.494819 1.74134,0.0029 c 0.95773,0.0016 1.74927,0.01084 1.75897,0.02054 0.0287,0.02871 -0.71239,1.139917 -1.17105,1.755867 -1.29115,1.733924 -3.00136,3.451904 -4.66601,4.687213 -2.00141,1.48521 -4.13762,2.603097 -6.44222,3.371243 -0.47229,0.157418 -1.84041,0.549294 -1.91771,0.549294 -0.0225,0 -0.033,-0.582394 -0.0246,-1.369088 z"
     id="path5"
     transform="scale(0.99882)" /><path
     style="opacity:0.53719;fill:#808080;stroke-width:0.0876217"
     d="m 73.251706,77.538386 c -8.861372,-2.37329 -15.495135,-10.000113 -16.64659,-19.138551 -0.427293,-3.391182 0.01244,-7.29355 1.1813,-10.483343 0.773893,-2.111936 2.305631,-4.812341 3.725687,-6.568266 0.748252,-0.925226 2.495394,-2.662881 3.415546,-3.396998 5.711189,-4.556511 13.162961,-6.118943 20.106811,-4.215845 3.97107,1.08835 7.556093,3.214613 10.430487,6.186285 1.023956,1.058609 2.411178,2.835169 2.983344,3.82065 0.189758,0.326832 0.497923,0.761817 0.684812,0.966633 l 0.339798,0.372392 h -1.405939 c -0.773268,0 -1.458452,0.01997 -1.522633,0.04437 -0.0706,0.02684 -0.220338,-0.120238 -0.379108,-0.372392 -0.972635,-1.544712 -2.798922,-3.586423 -4.288745,-4.794637 -3.00377,-2.435991 -6.768251,-4.009583 -10.582029,-4.423397 -1.089749,-0.118243 -3.163961,-0.118438 -4.256557,-4e-4 -4.727942,0.510779 -8.861794,2.495526 -12.198708,5.856847 -1.767651,1.78058 -2.891944,3.366224 -3.951848,5.573479 -3.013959,6.276579 -2.512189,13.845499 1.304061,19.671062 2.577248,3.934207 6.444803,6.884357 10.805706,8.242531 0.501472,0.15618 0.942464,0.310514 0.979981,0.342962 0.03752,0.03245 0.05723,0.611844 0.04381,1.287545 l -0.0244,1.228547 z"
     id="path6"
     transform="scale(0.99882)" /><path
     style="opacity:0.53719;fill:#ffffff;stroke-width:0.0876217"
     d="m 77.282303,71.655743 c -0.168672,-0.019 -0.782134,-0.129673 -1.36325,-0.245948 -3.424745,-0.685261 -6.68559,-2.587917 -8.937551,-5.214933 -4.99855,-5.831036 -5.295857,-14.100245 -0.7276,-20.237302 0.698418,-0.938264 2.181482,-2.433171 3.107239,-3.13205 4.301049,-3.246982 9.793461,-4.162371 14.85823,-2.476337 7.279461,2.423293 11.882806,9.746167 10.889866,17.323296 -0.241685,1.844294 -0.680634,3.308708 -1.494535,4.986035 -2.326311,4.794174 -6.927878,8.15321 -12.225427,8.924275 -0.858944,0.125021 -3.265168,0.167769 -4.106972,0.07296 z m 7.54589,-7.075757 c 3.625267,-0.634898 6.549624,-3.460772 7.306924,-7.060853 1.039756,-4.942827 -2.116944,-9.772918 -7.053318,-10.792338 -1.230911,-0.254198 -3.229588,-0.187677 -4.335641,0.144299 -3.161784,0.948995 -5.48372,3.338712 -6.331449,6.516273 -0.19921,0.746706 -0.226884,1.021444 -0.226884,2.252386 0,1.22794 0.02792,1.506556 0.224952,2.244769 0.920915,3.450359 3.631401,5.992726 7.13017,6.687919 0.811691,0.161281 2.386761,0.164898 3.285246,0.0075 z"
     id="path7"
     transform="scale(0.99882)" /><path
     style="opacity:0.53719;fill:#ffffff;stroke-width:0.0876217"
     d="m 119.47213,71.621957 c -4.10108,-0.585054 -7.70217,-2.561648 -10.28051,-5.642848 -4.15491,-4.965252 -4.96799,-11.893646 -2.06316,-17.58066 4.01846,-7.867291 13.42962,-11.087012 21.32489,-7.295623 4.49725,2.159623 7.70135,6.197797 8.79631,11.086107 0.62173,2.775609 0.46704,5.771324 -0.43833,8.489065 -1.9195,5.761941 -7.00855,10.036972 -12.97405,10.898785 -1.0545,0.152339 -3.44084,0.177035 -4.36515,0.04517 z m -0.13525,-7.170622 c 0.82758,-0.208677 2.09871,-0.780558 2.86795,-1.29029 1.95509,-1.295526 3.38173,-3.502713 3.84262,-5.945019 0.20942,-1.109726 0.13616,-2.852777 -0.16567,-3.942058 -0.45278,-1.633994 -1.23915,-2.965182 -2.43679,-4.125068 -1.19139,-1.153838 -2.26685,-1.784956 -3.89397,-2.28511 -0.72677,-0.223401 -0.89022,-0.240039 -2.40086,-0.244394 -1.94222,-0.0056 -2.55424,0.124697 -4.07441,0.867429 -1.82399,0.891172 -3.23116,2.298345 -4.12233,4.122332 -0.53841,1.101969 -0.79739,2.015526 -0.90781,3.202209 -0.43379,4.662188 2.76013,8.883032 7.39592,9.773898 0.90898,0.174679 2.94973,0.104514 3.89535,-0.133929 z"
     id="path8"
     transform="scale(0.99882)" /><path
     style="opacity:0.53719;fill:#ffffff;stroke-width:0.0876217"
     d="m 116.35723,60.589396 c -2.78665,-0.435252 -4.74804,-3.225795 -4.17116,-5.934501 0.22257,-1.045096 0.60036,-1.72283 1.4068,-2.523765 0.81082,-0.805279 1.50722,-1.194331 2.525,-1.410632 2.50604,-0.532589 5.17082,1.143266 5.81761,3.658633 0.17413,0.677193 0.19144,1.701492 0.0398,2.355893 -0.57868,2.497502 -3.12418,4.243893 -5.61806,3.854372 z"
     id="path9"
     transform="scale(0.99882)" /><path
     style="opacity:0.53719;fill:#ffffff;stroke-width:0.0876217"
     d="m 82.574835,60.593598 c -1.642879,-0.251773 -3.114144,-1.319573 -3.800872,-2.758558 -0.390425,-0.818104 -0.528339,-1.399987 -0.526527,-2.221505 0.0052,-2.336361 1.688837,-4.398021 3.98549,-4.88021 0.772706,-0.162231 1.241263,-0.162363 2.015298,-5.64e-4 1.932944,0.404047 3.532725,2.02988 3.905136,3.968729 0.138594,0.721548 0.05815,1.842889 -0.181851,2.534973 -0.766758,2.211052 -3.160104,3.699893 -5.396674,3.357135 z"
     id="path10"
     transform="scale(0.99882)" /><path
     style="opacity:0.53719;fill:#ffff00;stroke-width:0.0876217"
     d="m 99.801069,115.09105 c -0.12048,-0.0328 -2.52475,-0.0864 -5.342822,-0.11918 -10.859483,-0.12626 -13.792493,-0.27426 -19.410297,-0.97948 -4.787124,-0.60094 -12.243594,-1.81339 -12.539215,-2.03892 -0.106873,-0.0815 -2.899492,-2.51207 -6.20582,-5.40121 l -6.011505,-5.25297 0.02878,-27.911829 c 0.03105,-30.112545 0.0019,-28.139668 0.456909,-30.967015 1.768112,-10.987795 8.108081,-20.716132 17.523981,-26.889591 1.503547,-0.985789 2.195945,-1.371727 2.123836,-1.183813 -0.279337,0.727939 -0.271379,1.326081 0.02537,1.906776 0.34541,0.675919 0.984437,1.051459 1.78918,1.051459 0.805795,0 1.052311,-0.157753 2.290317,-1.465648 2.251343,-2.378441 4.615639,-4.160772 7.420711,-5.594126 1.066639,-0.545037 1.17218,-0.579739 2.234355,-0.7346561 C 86.8879,9.11661 87.047025,9.1126525 100.19537,9.1126525 c 13.16292,0 13.11907,-0.00111 15.94714,0.4026788 2.15574,0.307792 2.79344,0.4727332 3.69958,0.9568967 2.61166,1.395444 4.9839,3.229878 7.10855,5.496984 1.09471,1.168108 1.36681,1.336065 2.16446,1.336065 1.08866,0 1.86861,-0.706512 2.0173,-1.827343 0.0329,-0.247951 0.0789,-0.45082 0.10231,-0.45082 0.23461,0 3.55854,2.411539 4.88554,3.54449 1.10545,0.943802 3.23536,3.066273 4.2248,4.210027 5.26638,6.087807 8.45869,13.305186 9.44316,21.349694 0.27601,2.255443 0.3047,5.152858 0.30619,30.918304 l 0.001,25.893881 -4.27156,3.73324 c -2.34935,2.05328 -5.22122,4.56264 -6.38193,5.57636 l -2.11037,1.84313 -3.19074,0.5312 c -7.71577,1.28454 -13.11744,1.92756 -17.74556,2.1124 -2.86193,0.11431 -10.49411,0.26347 -13.48468,0.26353 -1.3015,3e-5 -2.48439,0.0332 -2.62865,0.0737 -0.14426,0.0405 -0.360862,0.0468 -0.481341,0.014 z m 5.282591,-12.79577 c 5.70161,-0.34263 10.59661,-1.25636 14.08009,-2.628272 1.36899,-0.539154 1.74435,-0.797182 2.04898,-1.408501 0.41766,-0.838136 0.28272,-1.69976 -0.36813,-2.350618 -0.70449,-0.704489 -1.52622,-0.792381 -2.64458,-0.282863 -1.89954,0.865419 -5.12943,1.666874 -8.67295,2.152079 -9.08969,1.244622 -21.022307,0.347735 -29.109793,-2.18796 -1.368682,-0.429127 -1.924969,-0.384058 -2.62181,0.212411 -0.711451,0.608976 -0.893983,1.581085 -0.460295,2.451378 0.29537,0.592734 0.625702,0.835087 1.578632,1.15821 4.143814,1.405096 10.658497,2.518146 16.856668,2.879996 1.785419,0.10424 7.604458,0.10682 9.313188,0.004 z M 82.82217,82.153392 c 4.840528,-0.713439 9.255584,-2.619014 13.062019,-5.637676 1.083512,-0.859271 3.232176,-2.98847 4.045441,-4.008794 0.3265,-0.409631 0.62225,-0.744784 0.65721,-0.744784 0.035,0 0.31444,0.315438 0.62108,0.700973 0.80457,1.011617 3.04232,3.230355 4.11331,4.078365 3.84964,3.048148 8.36367,4.966612 13.3185,5.660366 1.37018,0.191847 5.10368,0.21962 6.484,0.04823 2.93303,-0.364178 5.81512,-1.198988 8.39263,-2.430956 8.40177,-4.01579 14.07806,-11.960248 15.13156,-21.177869 0.16026,-1.402277 0.182,-4.315982 0.0423,-5.673958 -0.65526,-6.370538 -3.46235,-12.154505 -8.04879,-16.584422 -4.15618,-4.014338 -9.10196,-6.418085 -15.03579,-7.307684 -1.60534,-0.240673 -5.69026,-0.221781 -7.31751,0.03384 -5.58753,0.877732 -10.33939,3.129981 -14.36885,6.810425 -0.93621,0.855118 -2.25542,2.273515 -2.874,3.090091 -0.2265,0.299 -0.43153,0.543889 -0.45563,0.544197 -0.0241,3.1e-4 -0.26067,-0.283756 -0.52573,-0.631258 -0.692938,-0.908479 -3.219038,-3.423642 -4.274551,-4.256047 -3.751392,-2.958444 -7.989971,-4.784867 -12.898191,-5.557891 -1.011114,-0.159246 -1.56141,-0.186474 -3.768831,-0.186474 -2.797863,0 -3.682331,0.08948 -6.003183,0.607303 -6.797774,1.516717 -13.01257,5.967458 -16.756928,12.000518 -4.822573,7.770319 -5.327889,17.541156 -1.332406,25.763542 4.119323,8.47724 12.302047,14.135629 21.726733,15.02413 1.368646,0.129028 4.685377,0.03926 6.065597,-0.164172 z"
     id="path11"
     transform="scale(0.99882)" /><path
     style="opacity:0.53719;fill:#ffff00;stroke-width:0.123916"
     d="m 140.50981,144.40625 c -0.0179,-4.45925 0.0151,-6.62857 0.14127,-9.27614 0.13443,-2.8214 0.46527,-7.64221 0.59252,-8.63403 l 0.0823,-0.64146 4.33705,-4.07663 4.33705,-4.07663 0.0315,13.50523 c 0.0173,7.42788 0.0169,13.51992 -0.001,13.53787 -0.0179,0.0179 -2.01169,0.50554 -4.43054,1.08354 -2.41885,0.578 -4.55125,1.09005 -4.73868,1.1379 l -0.34076,0.087 z"
     id="path12"
     transform="scale(0.99882)" /><path
     style="opacity:0.53719;fill:#ffff00;stroke-width:0.123916"
     d="m 152.41636,160.91486 c 0,-0.0625 0.11556,-0.38314 0.2568,-0.71252 0.34722,-0.80971 0.94296,-2.95356 1.19945,-4.31634 0.18973,-1.00812 0.21617,-2.98269 0.27521,-20.55642 l 0.0653,-19.44117 0.66333,1.59731 c 2.58243,6.21852 4.25803,13.69519 4.98182,22.22927 0.43275,5.10249 0.18671,16.35174 -0.45464,20.78687 l -0.0762,0.52664 h -3.45557 c -2.01285,0 -3.45557,-0.0474 -3.45557,-0.11364 z"
     id="path13"
     transform="scale(0.99882)" /><path
     style="opacity:0.53719;fill:#ffff00;stroke-width:0.123916"
     d="m 40.596346,160.50186 c -0.684279,-4.732 -0.887024,-15.7558 -0.394914,-21.47259 0.730622,-8.48759 2.587019,-16.098 5.378144,-22.04803 l 0.579036,-1.23436 0.06587,19.75977 0.06587,19.75977 0.319072,1.42503 c 0.266413,1.18985 0.905251,3.24694 1.279542,4.1202 0.08732,0.20372 -0.128289,0.21685 -3.561755,0.21685 h -3.654702 z"
     id="path14"
     transform="scale(0.99882)" /><path
     style="opacity:0.53719;fill:#ffff00;stroke-width:0.123916"
     d="m 54.802946,145.93249 -4.490733,-1.07499 -0.0012,-13.43968 -0.0012,-13.43968 0.526642,0.50822 c 0.289653,0.27952 2.171624,2.05026 4.182156,3.93497 l 3.655515,3.42675 0.0823,0.64474 c 0.131844,1.03285 0.4613,5.87223 0.592229,8.69925 0.190664,4.11684 0.215482,11.84238 0.03799,11.82468 -0.05112,-0.005 -2.113767,-0.49301 -4.583671,-1.08426 z"
     id="path15"
     transform="scale(0.99882)" /><path
     style="opacity:0.53719;fill:#0000ff;stroke-width:0.0876217"
     d="m 75.223194,170.02409 c -8.686601,-0.0792 -9.888543,-0.16177 -12.105195,-0.8316 -2.63564,-0.79644 -4.603513,-1.91915 -6.733462,-3.84156 l -0.52573,-0.4745 1.711344,-1.73867 c 2.250231,-2.28616 2.93884,-3.21365 3.93287,-5.29724 1.0447,-2.18979 1.678381,-4.5699 1.945293,-7.30651 0.06695,-0.68644 0.120999,-4.36474 0.155687,-10.59547 l 0.05313,-9.54401 1.05146,0.94674 c 2.187466,1.96961 3.336734,2.42404 4.462298,1.76442 0.587776,-0.34446 1.228609,-1.36744 3.199993,-5.10823 1.714179,-3.25274 2.200996,-4.52075 2.029184,-5.28543 -0.134225,-0.59739 -0.462379,-0.97805 -2.087865,-2.42193 -2.330101,-2.06977 -2.935333,-2.65802 -2.734754,-2.65802 0.0935,0 0.968317,0.097 1.944034,0.21559 4.794065,0.5826 9.248917,0.93177 15.223957,1.19322 3.341609,0.14622 17.511362,0.20416 21.949232,0.0897 8.75219,-0.22564 13.98915,-0.53928 17.831,-1.06789 1.03613,-0.14256 2.24283,-0.28364 2.68155,-0.3135 1.30631,-0.0889 1.25808,0.0288 -0.73799,1.80182 -1.35978,1.20783 -2.25916,2.14832 -2.71927,2.8436 -0.55438,0.83773 -0.10005,2.08291 2.4776,6.79033 2.04213,3.72945 2.29307,4.04575 3.32154,4.18672 0.85698,0.11746 1.6842,-0.31769 3.50265,-1.84252 0.68307,-0.57278 1.06357,-0.83766 1.12093,-0.78031 0.22035,0.22036 0.26513,1.90141 0.21077,7.91238 -0.05,5.53284 -0.037,6.54757 0.12489,9.72601 0.22572,4.43162 0.31538,5.06283 1.02684,7.22878 0.67603,2.05813 1.63483,3.85778 2.88855,5.4218 0.91063,1.13599 1.80059,1.97744 3.13213,2.96137 0.58503,0.4323 1.07124,0.81271 1.08048,0.84537 0.0275,0.097 -1.70104,1.44054 -2.64544,2.05624 -1.19958,0.78206 -2.84026,1.67517 -3.66194,1.99339 -2.10278,0.81437 -4.37507,1.00484 -13.55572,1.13624 -6.44315,0.0922 -39.199347,0.088 -49.55005,-0.006 z m 27.688446,-14.27804 c 0.33734,-0.0458 0.98313,-0.12364 1.43508,-0.17289 1.0805,-0.11775 1.70534,-0.28625 2.6735,-0.72096 2.05101,-0.92091 4.08653,-2.51443 5.59741,-4.38195 0.89082,-1.10109 1.31606,-1.78391 2.17036,-3.48492 l 0.7261,-1.44576 0.0673,-2.10292 c 0.037,-1.1566 0.0694,-4.64613 0.072,-7.75451 0.006,-7.55187 0.051,-7.36995 -1.87661,-7.62782 -0.57847,-0.0774 -4.78507,-0.11585 -15.78769,-0.14436 l -14.999098,-0.0389 -0.527958,0.66438 c -0.290377,0.36541 -0.57581,0.81186 -0.634296,0.99211 -0.235404,0.7255 -0.157541,11.01528 0.104106,13.75794 0.183911,1.92781 0.547203,3.1604 1.459771,4.95275 1.359121,2.66941 3.40687,4.65673 6.329057,6.14227 1.887717,0.95966 2.81954,1.24434 4.458476,1.3621 1.366578,0.0982 8.015862,0.1008 8.732552,0.003 z"
     id="path16"
     transform="scale(0.99882)" /><path
     style="opacity:0.53719;fill:#000080;stroke-width:0.0876217"
     d="m 94.107578,151.53295 c -2.021188,-0.43077 -3.672161,-1.3477 -5.171595,-2.87221 -1.346727,-1.36926 -2.10717,-2.69638 -2.649805,-4.62443 -0.188769,-0.67072 -0.194099,-0.82187 -0.22122,-6.27316 l -0.02779,-5.58588 h 12.752602 12.7526 l -0.002,5.06015 c -9.9e-4,2.87747 -0.0393,5.32472 -0.0889,5.6735 -0.5935,4.17442 -3.48183,7.41292 -7.62544,8.54994 -0.71697,0.19674 -0.86288,0.20359 -4.813785,0.22599 -3.806284,0.0216 -4.129059,0.0114 -4.904896,-0.1539 z"
     id="path17"
     transform="scale(0.99882)" /><path
     style="opacity:0.53719;fill:#000080;stroke-width:0.0876217"
     d="m 52.145097,160.17212 c -0.902754,-1.8212 -1.528557,-3.94113 -1.758802,-5.958 -0.08658,-0.7584 -0.131816,-5.12587 -0.05309,-5.12587 0.04971,0 8.05521,1.90769 8.467753,2.01784 l 0.3135,0.0837 -0.119933,0.76738 c -0.286334,1.83208 -0.728002,3.15876 -1.538963,4.62272 -0.850737,1.53577 -1.747857,2.65689 -2.808812,3.51012 -0.679349,0.54634 -1.682482,1.17764 -1.871257,1.17764 -0.04804,0 -0.331714,-0.49299 -0.630394,-1.09554 z"
     id="path18"
     transform="scale(0.99882)" /><path
     style="opacity:0.53719;fill:#000080;stroke-width:0.0876217"
     d="m 146.74223,161.02534 c -1.83315,-1.01054 -3.30442,-2.64797 -4.46673,-4.97117 -0.26522,-0.53011 -0.6011,-1.33842 -0.7464,-1.79624 -0.3025,-0.95316 -0.68054,-2.97209 -0.57369,-3.06385 0.0394,-0.0339 2.04314,-0.52801 4.45273,-1.09815 2.4096,-0.57013 4.45009,-1.05441 4.53442,-1.07617 0.14172,-0.0366 0.1532,0.0757 0.15154,1.48212 -0.004,3.26835 -0.268,5.28258 -0.96932,7.39235 -0.5271,1.58565 -1.46694,3.46569 -1.7295,3.45969 -0.0327,-7.4e-4 -0.32658,-0.1486 -0.65305,-0.32858 z"
     id="path19"
     transform="scale(0.99882)" /><path
     style="opacity:0.53719;fill:#000080;stroke-width:0.0876217"
     d="m 93.186645,185.73522 c -0.288596,-0.11722 -0.860328,-0.28736 -1.270514,-0.37809 -0.686031,-0.15174 -1.181138,-0.16496 -6.178338,-0.16496 -5.010048,0 -5.490466,0.0129 -6.177327,0.16591 -0.409632,0.0913 -0.848622,0.20596 -0.975534,0.25492 -0.228378,0.0881 -0.231838,0.0835 -0.336536,-0.4487 -0.16012,-0.81387 -0.907489,-3.39646 -1.311578,-4.53225 -0.197174,-0.55421 -0.539403,-1.37323 -0.76051,-1.82005 -0.492159,-0.99457 -1.585464,-2.64463 -2.328432,-3.51417 -0.303797,-0.35555 -0.606455,-0.72027 -0.672573,-0.8105 -0.11741,-0.16021 0.51277,-0.16404 27.010217,-0.16404 h 27.13043 l -0.66464,0.76669 c -0.906,1.04511 -1.98542,2.67086 -2.54988,3.84046 -0.25769,0.53396 -0.68461,1.62536 -0.94871,2.42532 -0.48589,1.47179 -1.18337,4.04171 -1.18337,4.36019 0,0.2198 -0.0363,0.21784 -0.71791,-0.0387 -1.26248,-0.47519 -1.46625,-0.48886 -7.29005,-0.48886 -5.61566,0 -5.91631,0.0169 -6.96711,0.39037 -0.21233,0.0755 -0.407,0.11629 -0.43261,0.0907 -0.0256,-0.0256 -0.23401,-1.54312 -0.46314,-3.37227 -0.27253,-2.1757 -0.46764,-3.43328 -0.56421,-3.6368 -0.23148,-0.48781 -0.85318,-0.98165 -1.38104,-1.09701 -0.31013,-0.0678 -1.65544,-0.09 -4.26459,-0.0704 -3.710247,0.0278 -3.820856,0.0336 -4.162028,0.21769 -0.445918,0.24062 -0.78648,0.59941 -0.95744,1.00867 -0.07435,0.17798 -0.311867,1.76263 -0.531909,3.54868 -0.218668,1.77491 -0.426462,3.32909 -0.461764,3.45375 l -0.06419,0.22664 z"
     id="path20"
     transform="scale(0.99882)" /><path
     style="opacity:0.53719;fill:#000080;stroke-width:0.123916"
     d="m 49.211599,188.52797 c -1.139184,-0.22322 -2.02307,-1.1977 -2.551573,-2.8131 -0.224631,-0.68661 -0.655958,-1.29164 -1.103379,-1.54773 -0.172215,-0.0986 -1.114121,-0.17483 -2.681802,-0.21711 -2.20261,-0.0594 -2.463508,-0.0901 -2.949394,-0.34672 -1.607461,-0.84903 -2.269467,-4.08022 -1.527808,-7.45709 0.263944,-1.20177 0.806019,-2.91419 1.515634,-4.7879 l 0.28807,-0.76063 -0.468945,-2.46118 c -0.257919,-1.35364 -0.498858,-2.58663 -0.53542,-2.73998 l -0.06648,-0.27881 h 4.199987 4.199986 l 0.274376,2.79418 c 0.279336,2.84471 0.374344,3.2331 0.913235,3.73327 0.47975,0.44529 3.235833,1.98544 5.765142,3.22167 2.683166,1.31143 3.265696,1.79356 3.761443,3.11313 0.362921,0.96602 0.461429,2.33391 0.203935,2.83185 -0.251215,0.48579 -0.957284,1.10417 -1.63885,1.4353 l -0.535707,0.26026 -0.881192,-0.73324 c -2.229446,-1.85514 -2.189508,-1.82966 -2.951051,-1.88293 -0.589287,-0.0412 -0.778703,-7.2e-4 -1.137746,0.24328 -0.674506,0.45837 -0.99435,1.02517 -0.993811,1.76116 6.42e-4,0.87723 0.234489,1.20001 1.898362,2.62025 l 1.429882,1.22052 -0.182823,0.44034 c -0.71517,1.72253 -2.475486,2.69774 -4.244075,2.35121 z"
     id="path21"
     transform="scale(0.99882)" /><path
     style="opacity:0.53719;fill:#000080;stroke-width:0.175243"
     d="m 149.10062,188.41048 c -0.45103,-0.12448 -1.09052,-0.43262 -1.4211,-0.68477 -0.58524,-0.44638 -1.18678,-1.43037 -1.16559,-1.90666 0.006,-0.13001 0.63337,-0.74896 1.39463,-1.37546 1.52914,-1.25843 1.81933,-1.66373 1.81933,-2.54103 0,-1.23859 -0.83151,-2.0153 -2.1575,-2.0153 -0.57341,0 -0.88968,0.14966 -1.71732,0.81263 -0.55796,0.44694 -1.25344,1.03706 -1.54551,1.31138 l -0.53104,0.49877 -0.74759,-0.36988 c -1.5234,-0.75372 -1.91242,-1.86373 -1.33482,-3.80872 0.44624,-1.50264 1.173,-2.13088 4.17449,-3.60857 3.20247,-1.57663 5.30632,-2.83189 5.73626,-3.42253 0.23554,-0.32358 0.38922,-1.11976 0.58787,-3.0456 0.14792,-1.43413 0.26896,-2.71559 0.26896,-2.84771 0,-0.19672 0.75587,-0.2402 4.17588,-0.2402 h 4.17588 l -0.51405,2.67246 -0.51406,2.67246 0.79358,2.36578 c 0.98002,2.9216 1.16664,3.71938 1.2888,5.5095 0.11119,1.62943 -0.23823,3.30166 -0.9028,4.32055 -0.65248,1.00036 -1.30463,1.21028 -3.75997,1.21028 -2.70797,0 -3.22021,0.18703 -3.70352,1.35222 -0.71118,1.71451 -1.12686,2.38041 -1.7324,2.77522 -0.81167,0.5292 -1.65561,0.64469 -2.66841,0.36518 z"
     id="path22"
     transform="scale(0.99882)" /><path
     style="opacity:0.53719;fill:#a02c2c;stroke-width:0.175243"
     d="m 77.110908,194.21341 c 0.0049,-2.08198 0.316797,-2.81647 1.600369,-3.76928 0.515246,-0.38247 1.204871,-0.78503 1.532501,-0.89457 0.389509,-0.13022 2.333748,-0.19916 5.617189,-0.19916 5.019146,0 5.021914,2.1e-4 5.91006,0.44279 1.95283,0.97314 2.68512,2.27094 2.68512,4.7587 v 1.28252 h -8.674544 -8.674544 z"
     id="path23"
     transform="scale(0.99882)" /><path
     style="opacity:0.53719;fill:#a02c2c;stroke-width:0.175243"
     d="m 105.32123,194.40898 c 0,-0.78398 0.0967,-1.74812 0.21485,-2.14252 0.27167,-0.90675 1.30451,-1.94738 2.47264,-2.49126 0.89065,-0.41469 0.98557,-0.42134 5.98706,-0.41924 5.5835,0.002 5.73617,0.0271 7.19444,1.16737 1.02472,0.80124 1.3605,1.63761 1.44628,3.60245 l 0.0746,1.70863 h -8.69492 -8.69493 z"
     id="path24"
     transform="scale(0.99882)" /><path
     style="opacity:0.53719;fill:#f9f9f9;stroke-width:0.123916"
     d="m 81.718966,60.305366 c -2.155043,-0.796732 -3.517157,-2.782785 -3.370924,-4.915031 0.0849,-1.237997 0.475914,-2.159103 1.289642,-3.038027 1.962284,-2.119501 5.021298,-2.198471 7.038076,-0.181693 0.359869,0.359869 0.814522,0.980596 1.010339,1.379393 0.326577,0.665097 0.356032,0.837855 0.356032,2.088158 0,1.237019 -0.03159,1.42741 -0.341655,2.058773 -0.455076,0.926656 -1.433173,1.881092 -2.431918,2.373086 -0.695035,0.342383 -0.967827,0.405583 -1.870141,0.433269 -0.786836,0.02414 -1.215397,-0.02636 -1.679451,-0.197928 z"
     id="path25"
     transform="scale(0.99882)" /><path
     style="opacity:0.53719;fill:#f9f9f9;stroke-width:0.123916"
     d="m 115.55143,60.315398 c -1.81455,-0.647571 -3.18939,-2.389504 -3.36431,-4.262589 -0.18679,-2.000384 1.01232,-4.020075 2.91287,-4.906199 2.32136,-1.082327 5.20076,-0.0391 6.376,2.310066 1.25245,2.503501 0.21945,5.396413 -2.36313,6.617916 -0.70186,0.331962 -1.00354,0.400411 -1.88857,0.428496 -0.76602,0.02431 -1.22227,-0.02688 -1.67286,-0.18769 z"
     id="path26"
     transform="scale(0.99882)" /><path
     style="opacity:0.53719;fill:#f9f9f9;stroke-width:0.123916"
     d="m 119.82652,71.607651 c -6.28677,-0.794988 -11.54531,-5.049561 -13.50263,-10.924689 -0.63966,-1.920031 -0.80518,-2.991332 -0.79858,-5.168712 0.005,-1.682666 0.0545,-2.190463 0.32682,-3.356109 1.77255,-7.588878 8.60183,-12.850149 16.26683,-12.531962 4.13177,0.171516 7.78352,1.772001 10.70196,4.690442 2.93826,2.938252 4.51233,6.537117 4.68083,10.701966 0.11407,2.819323 -0.37401,5.114972 -1.63342,7.682776 -2.1554,4.394606 -6.41124,7.682039 -11.2091,8.658493 -0.93735,0.190769 -4.02976,0.34933 -4.83271,0.247795 z m 0.062,-7.28896 c 1.19664,-0.401525 2.3375,-1.021171 3.10814,-1.688159 2.34618,-2.030604 3.52194,-5.037748 3.15374,-8.066035 -0.2761,-2.270819 -0.96951,-3.667122 -2.67296,-5.382473 -0.94428,-0.95088 -1.30385,-1.218566 -2.29248,-1.706688 -1.59586,-0.787938 -2.61423,-0.988757 -4.58021,-0.903204 -1.7052,0.0742 -2.38124,0.252816 -3.8215,1.009652 -3.96158,2.081753 -5.79587,6.824547 -4.3014,11.121874 0.73159,2.103689 2.53545,4.122363 4.56668,5.110499 1.59284,0.774872 2.39456,0.939526 4.29971,0.883069 1.27015,-0.03764 1.72738,-0.105775 2.54028,-0.378535 z"
     id="path27"
     transform="scale(0.99882)" /><path
     style="opacity:0.53719;fill:#f9f9f9;stroke-width:0.123916"
     d="M 76.511235,71.4543 C 70.498197,70.352905 65.807694,66.281634 63.877852,60.488757 62.28916,55.719926 63.19399,50.1859 66.221549,46.154487 c 4.128654,-5.497602 10.934449,-7.786633 17.48285,-5.880106 4.298174,1.251387 8.062693,4.516128 9.97146,8.647646 0.934797,2.023362 1.361372,3.809117 1.456327,6.09656 0.115196,2.775015 -0.384928,5.112268 -1.643953,7.682776 -1.526232,3.116057 -4.118859,5.700274 -7.314098,7.290372 -2.166641,1.07822 -4.00587,1.528681 -6.63625,1.625337 -1.412702,0.05191 -2.038268,0.01827 -3.02665,-0.162772 z m 9.520742,-7.11482 c 2.940002,-0.954417 5.26867,-3.411128 6.056739,-6.389776 0.346415,-1.309331 0.344593,-3.320429 -0.0042,-4.639508 -0.428172,-1.619269 -1.145941,-2.839163 -2.430457,-4.130712 -0.96331,-0.968585 -1.292015,-1.210995 -2.297405,-1.694265 -1.609782,-0.773788 -2.745436,-1.003931 -4.567296,-0.925576 -1.120166,0.04818 -1.658144,0.136104 -2.43,0.397159 -2.900956,0.981155 -4.881066,3.02226 -5.909257,6.091287 -0.245059,0.73147 -0.28653,1.106348 -0.28653,2.590077 0,1.935801 0.181828,2.711898 1.002022,4.276931 1.181832,2.25508 3.553393,4.090358 6.002407,4.645074 1.25609,0.284512 3.641084,0.176299 4.863979,-0.220691 z"
     id="path28"
     transform="scale(0.99882)" /></svg>
