<?xml version="1.0" encoding="UTF-8" standalone="no"?>
<svg
   version="1.1"
   x="0px"
   y="0px"
   viewBox="0 0 1355.2868 963.35065"
   xml:space="preserve"
   id="svg11"
   sodipodi:docname="no-internet.svg"
   inkscape:version="1.3.2 (091e20ef0f, 2023-11-25, custom)"
   width="1355.2869"
   height="963.35065"
   xmlns:inkscape="http://www.inkscape.org/namespaces/inkscape"
   xmlns:sodipodi="http://sodipodi.sourceforge.net/DTD/sodipodi-0.dtd"
   xmlns="http://www.w3.org/2000/svg"
   xmlns:svg="http://www.w3.org/2000/svg"><defs
     id="defs11" /><sodipodi:namedview
     id="namedview11"
     pagecolor="#505050"
     bordercolor="#eeeeee"
     borderopacity="1"
     inkscape:showpageshadow="0"
     inkscape:pageopacity="0"
     inkscape:pagecheckerboard="0"
     inkscape:deskcolor="#505050"
     inkscape:zoom="0.91102802"
     inkscape:cx="819.95283"
     inkscape:cy="821.59932"
     inkscape:window-width="1920"
     inkscape:window-height="1010"
     inkscape:window-x="0"
     inkscape:window-y="0"
     inkscape:window-maximized="1"
     inkscape:current-layer="g10" /><g
     id="g10"
     transform="translate(-31.009945,-227.04937)"><path
       d="m 592.7,806.6 c -46.2,0 -83.6,37.4 -83.6,83.6 0,46.2 37.4,83.6 83.6,83.6 46.2,0 83.6,-37.4 83.6,-83.6 0,-46.2 -37.4,-83.6 -83.6,-83.6 z m 24,80.9 c -13.4,0 -24.3,-10.9 -24.3,-24.3 0,-13.4 10.9,-24.3 24.3,-24.3 13.4,0 24.3,10.9 24.3,24.3 0,13.4 -10.9,24.3 -24.3,24.3 z"
       id="path1" /><path
       d="m 680.3,802.6 c -48.1,-48.1 -127,-48.1 -175.1,0 -48.1,48.1 -48.1,127 0,175.1 48.1,48.1 127,48.1 175.1,0 48.1,-48.1 48.1,-127 0,-175.1 z M 669,966.4 c -41.9,41.9 -110.6,41.9 -152.5,0 -41.9,-41.9 -41.9,-110.6 0,-152.5 41.9,-41.9 110.6,-41.9 152.5,0 41.9,41.9 41.9,110.6 0,152.5 z"
       id="path2" /><path
       d="M 122.3,460.2 90,490.1 c -6.2,5.7 -4.3,5.8 -10,-0.4 L 50.1,457.4 c -8.1,-8.7 -21.3,3.5 -13.2,12.2 l 27.9,30.2 c 8,8.6 8.3,6 -0.2,13.9 L 34,541.9 c -8.7,8.1 3.5,21.3 12.2,13.2 l 29.4,-27.2 c 9.9,-9.1 7.8,-8.9 15.8,0.2 l 27,29.8 c 8.1,8.7 21.3,-3.5 13.2,-12.2 L 104,515.9 c -6.9,-7.5 -7.7,-7.2 -0.2,-14.1 l 30.6,-28.3 c 8.9,-8.1 -3.4,-21.3 -12.1,-13.3 z"
       id="path3" /><path
       d="m 1385.9,384 c -36.4,-119.7 -165.5,-185.6 -283.8,-144.9 -9.7,3.3 -4.6,18.1 5.1,14.8 v 0 c 109.8,-37.9 230.1,23.2 263.8,134.6 3,9.8 17.9,5.3 14.9,-4.5 z"
       id="path4" /><path
       d="m 1135.4,343.7 c -9.6,3.5 -4.3,18.2 5.4,14.6 52.1,-19.3 110.6,9.9 125.8,64 2.8,9.9 17.8,5.7 15,-4.2 -17.5,-62.3 -85.1,-97.1 -146.2,-74.4 z"
       id="path5" /><path
       d="m 1119,291.2 c -9.7,3.4 -4.5,18.1 5.1,14.7 v 0 c 39,-13.7 81.7,-10.6 118.5,8.1 37.1,18.9 64.5,51.7 76.2,91.7 2.9,9.8 17.8,5.4 14.9,-4.4 C 1307.1,310.1 1208.6,259.8 1119,291.2 Z"
       id="path6" /><path
       d="m 1079.2,675.2 c -14,-7.1 -13.2,-6.7 -5.8,-19.6 L 1135.5,548 c 6.1,-10.6 2.7,-7.7 14,-6.3 18.3,2.2 36.9,-4 50.2,-17.3 23.5,-23.5 23.5,-62.1 0,-85.6 -23.5,-23.5 -62.1,-23.5 -85.6,0 -22.2,22.2 -23.4,57.7 -3.8,81.4 6.9,8.3 6.8,7.2 2.1,14.7 l -62.9,110.6 c -6.8,11.7 -7.3,14.1 -20.5,10.5 -22.7,-6.2 -46.6,-9.6 -71.2,-9.6 h -393 c -26.3,0.1 -51.9,4.1 -76,11 -19.5,5.6 -13.7,8.5 -21.1,-9.2 -35.5,-85.6 -135.9,-130 -212.6,-72.5 -13.4,10 -5.7,7.7 -20.5,2.5 -21.8,-7.6 -46.3,-2 -62.7,14.4 v 0 c -23.5,23.5 -23.5,62.1 0,85.6 23.5,23.5 62.1,23.5 85.6,0 16.7,-16.7 22.1,-41.7 14,-63.7 -5.3,-14.4 -10.9,-10.7 4.6,-21.1 62.2,-41.4 137.8,-3 166.5,63.5 7.7,17.9 7.8,14.4 -7.1,22.5 -23.1,12.6 -44.2,28.4 -62.7,46.9 -49.3,49.3 -79.9,117.3 -79.9,192.1 0,74.8 30.6,142.8 79.9,192.1 49.3,49.3 117.3,79.9 192.1,79.9 h 393 c 74.8,0 142.8,-30.6 192.1,-79.9 49.3,-49.3 79.9,-117.3 79.9,-192.1 0,-74.8 -30.6,-142.8 -79.9,-192.1 -20.8,-20.6 -44.6,-38 -70.8,-51.1 z m 53.7,-217.6 c 13.2,-13.2 34.8,-13.2 48,0 13.2,13.2 13.2,34.8 0,48 -13.2,13.2 -34.8,13.2 -48,0 -13.1,-13.2 -13.1,-34.9 0,-48 z M 238.5,659.3 c -13.2,13.2 -34.8,13.2 -48,0 -13.2,-13.2 -13.2,-34.8 0,-48 13.2,-13.2 34.8,-13.2 48,0 13.2,13.2 13.2,34.9 0,48 z m 892.5,432.3 c -44.5,44.5 -105.8,72.1 -173.3,72.1 h -393 c -67.5,0 -128.8,-27.6 -173.3,-72.1 -44.5,-44.5 -72.1,-105.8 -72.1,-173.3 0,-67.5 27.6,-128.8 72.1,-173.3 44.5,-44.5 105.8,-72.1 173.3,-72.1 h 393 c 67.5,0 128.8,27.6 173.3,72.1 44.5,44.5 72.1,105.8 72.1,173.3 -0.1,67.5 -27.7,128.8 -72.1,173.3 z"
       id="path7" /><path
       d="m 897.5,1074.1 c -43.73888,-16.7528 -70.92079,-9.9437 -95.9,0 -9.75546,3.8834 -10.5,16 0,16 h 95.9 c 10.5,0 9.80537,-12.2444 0,-16 z"
       id="path8"
       sodipodi:nodetypes="sssss" /><path
       d="m 1017.2,802.6 c -48.1,-48.1 -127,-48.1 -175.1,0 -48.1,48.1 -48.1,127 0,175.1 48.1,48.1 127,48.1 175.1,0 48.1,-48.1 48.1,-127 0,-175.1 z m -11.3,163.8 c -41.9,41.9 -110.6,41.9 -152.5,0 -41.9,-41.9 -41.9,-110.6 0,-152.5 41.9,-41.9 110.6,-41.9 152.5,0 41.9,41.9 41.9,110.6 0,152.5 z"
       id="path9" /><path
       d="m 929.7,806.6 v 0 c -46.2,0 -83.6,37.4 -83.6,83.6 0,46.2 37.4,83.6 83.6,83.6 46.2,0 83.6,-37.4 83.6,-83.6 -0.1,-46.2 -37.5,-83.6 -83.6,-83.6 z m 21.6,80.9 c -13.4,0 -24.3,-10.9 -24.3,-24.3 0,-13.4 10.9,-24.3 24.3,-24.3 13.4,0 24.3,10.9 24.3,24.3 0,13.4 -10.9,24.3 -24.3,24.3 z"
       id="path10" /></g></svg>
