<?xml version="1.0" encoding="UTF-8" standalone="no"?>
<svg
   viewBox="0 0 15.149999 15.5"
   fill="none"
   version="1.1"
   id="svg2"
   sodipodi:docname="setting.svg"
   width="15.149999"
   height="15.5"
   inkscape:version="1.3.2 (091e20ef0f, 2023-11-25, custom)"
   xmlns:inkscape="http://www.inkscape.org/namespaces/inkscape"
   xmlns:sodipodi="http://sodipodi.sourceforge.net/DTD/sodipodi-0.dtd"
   xmlns="http://www.w3.org/2000/svg"
   xmlns:svg="http://www.w3.org/2000/svg">
  <defs
     id="defs2" />
  <sodipodi:namedview
     id="namedview2"
     pagecolor="#505050"
     bordercolor="#eeeeee"
     borderopacity="1"
     inkscape:showpageshadow="0"
     inkscape:pageopacity="0"
     inkscape:pagecheckerboard="0"
     inkscape:deskcolor="#505050"
     inkscape:zoom="11.888233"
     inkscape:cx="12.365168"
     inkscape:cy="19.304804"
     inkscape:window-width="1920"
     inkscape:window-height="1010"
     inkscape:window-x="0"
     inkscape:window-y="0"
     inkscape:window-maximized="1"
     inkscape:current-layer="svg2" />
  <g
     id="SVGRepo_bgCarrier"
     stroke-width="0"
     transform="translate(-4.125001,-4.2499999)" />
  <g
     id="SVGRepo_tracerCarrier"
     stroke-linecap="round"
     stroke-linejoin="round"
     transform="translate(-4.125001,-4.2499999)" />
  <g
     id="SVGRepo_iconCarrier"
     transform="translate(-4.125001,-4.2499999)">
    <path
       fill-rule="evenodd"
       clip-rule="evenodd"
       d="M 11.0175,19 C 10.6601,19 10.3552,18.7347 10.297,18.373 10.2434,18.0804 10.038,17.8413 9.76171,17.75 9.53658,17.6707 9.31645,17.5772 9.10261,17.47 8.84815,17.3365 8.54289,17.3565 8.30701,17.522 8.02156,17.7325 7.62943,17.6999 7.38076,17.445 L 6.41356,16.453 C 6.15326,16.186 6.11944,15.7651 6.33361,15.458 6.49878,15.2105 6.52257,14.8914 6.39601,14.621 6.31262,14.4332 6.23906,14.2409 6.17566,14.045 6.08485,13.7363 5.8342,13.5051 5.52533,13.445 5.15287,13.384 4.8779,13.0559 4.87501,12.669 v -1.241 c -0.00198,-0.4459 0.31204,-0.8273 0.741,-0.9 C 5.94143,10.4645 6.21316,10.2359 6.33751,9.921 6.37456,9.83233 6.41356,9.74433 6.45451,9.657 6.61989,9.33044 6.59705,8.93711 6.39503,8.633 6.1424,8.27288 6.18119,7.77809 6.48668,7.464 L 7.19746,6.735 C 7.54802,6.37532 8.1009,6.32877 8.50396,6.625 l 0.02242,0.016 c 0.30097,0.20776 0.68395,0.24539 1.0179,0.1 C 9.90155,6.60911 10.1649,6.29424 10.2375,5.912 L 10.2473,5.878 C 10.3275,5.37197 10.7536,5.00021 11.2535,5 h 0.858 c 0.5133,-2.4e-4 0.9514,0.38057 1.0354,0.9 l 0.0156,0.07 c 0.0689,0.36617 0.3186,0.66922 0.6591,0.8 0.3282,0.14447 0.7056,0.10674 1.0004,-0.1 l 0.0487,-0.036 c 0.4135,-0.30566 0.9821,-0.25865 1.3426,0.111 l 0.6542,0.672 c 0.3279,0.33816 0.3691,0.86993 0.0975,1.257 -0.2128,0.32352 -0.2399,0.73925 -0.0712,1.089 l 0.042,0.1 c 0.1366,0.3415 0.4323,0.589 0.7858,0.658 0.4621,0.0773 0.8019,0.4859 0.8034,0.966 V 12.6 c -10e-5,0.4234 -0.2987,0.7846 -0.7059,0.854 -0.3349,0.0659 -0.6077,0.3146 -0.7108,0.648 -0.0455,0.1333 -0.0962,0.2667 -0.1521,0.4 -0.1301,0.293 -0.1012,0.6344 0.0761,0.9 0.2339,0.3338 0.1976,0.7923 -0.0858,1.083 l -0.9077,0.932 c -0.2596,0.2662 -0.669,0.3005 -0.9672,0.081 -0.249,-0.1745 -0.5715,-0.1937 -0.8385,-0.05 -0.1903,0.0967 -0.3856,0.1825 -0.585,0.257 -0.2789,0.0987 -0.4845,0.3435 -0.5382,0.641 -0.0569,0.3743 -0.3698,0.6512 -0.7391,0.654 z"
       stroke="#000000"
       stroke-width="1.5"
       stroke-linecap="round"
       stroke-linejoin="round"
       id="path1" />
    <path
       fill-rule="evenodd"
       clip-rule="evenodd"
       d="m 13.9747,12 c 0,1.2885 -1.0184,2.333 -2.2747,2.333 -1.2563,0 -2.27467,-1.0445 -2.27467,-2.333 0,-1.2885 1.01837,-2.33301 2.27467,-2.33301 1.2563,0 2.2747,1.04451 2.2747,2.33301 z"
       stroke="#000000"
       stroke-width="1.5"
       stroke-linecap="round"
       stroke-linejoin="round"
       id="path2" />
  </g>
</svg>
